<svg width="24" height="15" viewBox="0 0 24 15" fill="none" xmlns="http://www.w3.org/2000/svg">
    <path d="M15.5512 11.5H8.44922" stroke="#737373" stroke-miterlimit="10" stroke-linecap="round" stroke-linejoin="round"/>
    <path d="M3.551 11.5H1.5V5.5L5.5 0.5H15.5L18.5 5.5H23.5V11.5H20.449" stroke="#737373" stroke-miterlimit="10" stroke-linecap="round" stroke-linejoin="round"/>
    <path d="M6 14.5C7.38071 14.5 8.5 13.3807 8.5 12C8.5 10.6193 7.38071 9.5 6 9.5C4.61929 9.5 3.5 10.6193 3.5 12C3.5 13.3807 4.61929 14.5 6 14.5Z" stroke="#737373" stroke-miterlimit="10" stroke-linecap="round" stroke-linejoin="round"/>
    <path d="M18 14.5C19.3807 14.5 20.5 13.3807 20.5 12C20.5 10.6193 19.3807 9.5 18 9.5C16.6193 9.5 15.5 10.6193 15.5 12C15.5 13.3807 16.6193 14.5 18 14.5Z" stroke="#737373" stroke-miterlimit="10" stroke-linecap="round" stroke-linejoin="round"/>
    <path d="M18.5 5.5H1.5" stroke="#737373" stroke-miterlimit="10" stroke-linecap="round" stroke-linejoin="round"/>
    <path d="M10.5 0.5V5.5" stroke="#737373" stroke-miterlimit="10" stroke-linecap="round" stroke-linejoin="round"/>
</svg>